<svg width="345" height="278" viewBox="0 0 345 278"
     xmlns="http://www.w3.org/2000/svg" role="img" aria-label="Most used languages">
  <style>
    .title { font: 600 18px 'Segoe UI',Ubuntu,Sans-Serif; fill:#58a6ff; }
    .lg    { font: 400 12px 'Segoe UI',Ubuntu,Sans-Serif; fill:#c9d1d9; }
  </style>
  <rect x="0.5" y="0.5" rx="10" width="344" height="277"
        fill="#0d1117" stroke="#30363d"/>
  <text x="25" y="35" class="title">Most Used Languages</text>
  <rect x="25" y="55" width="295" height="8" rx="4" fill="#21262d"/>
  <rect x="25.0" y="55" width="115.6" height="8" fill="#4F5D95"/><rect x="140.6" y="55" width="39.5" height="8" fill="#3572A5"/><rect x="180.2" y="55" width="36.6" height="8" fill="#012456"/><rect x="216.8" y="55" width="35.4" height="8" fill="#e34c26"/><rect x="252.2" y="55" width="35.4" height="8" fill="#89e051"/><rect x="287.6" y="55" width="21.8" height="8" fill="#f7523f"/><rect x="309.4" y="55" width="9.1" height="8" fill="#b07219"/><rect x="318.5" y="55" width="0.6" height="8" fill="#384d54"/>
  
      <circle cx="30" cy="86" r="5" fill="#4F5D95"/>
      <text x="41" y="90" class="lg">PHP 39.2%</text>
      <circle cx="193" cy="86" r="5" fill="#3572A5"/>
      <text x="204" y="90" class="lg">Python 13.4%</text>
      <circle cx="30" cy="112" r="5" fill="#012456"/>
      <text x="41" y="116" class="lg">PowerShell 12.4%</text>
      <circle cx="193" cy="112" r="5" fill="#e34c26"/>
      <text x="204" y="116" class="lg">HTML 12.0%</text>
      <circle cx="30" cy="138" r="5" fill="#89e051"/>
      <text x="41" y="142" class="lg">Shell 12.0%</text>
      <circle cx="193" cy="138" r="5" fill="#f7523f"/>
      <text x="204" y="142" class="lg">Blade 7.4%</text>
      <circle cx="30" cy="164" r="5" fill="#b07219"/>
      <text x="41" y="168" class="lg">Java 3.1%</text>
      <circle cx="193" cy="164" r="5" fill="#384d54"/>
      <text x="204" y="168" class="lg">Dockerfile 0.2%</text>
</svg>